<svg height="520pt" preserveAspectRatio="xMidYMid meet" viewBox="0 0 520 520" width="520pt" xmlns="http://www.w3.org/2000/svg"><g transform="matrix(.1 0 0 -.1 0 520)"><path d="m1485 3720c-567-88-985-572-985-1140 0-312 115-592 334-813 292-293 714-408 1114-302 118 31 293 115 387 186 207 155 363 384 431 634 26 93 28 114 28 290 0 174-2 198-26 287-117 430-450 749-883 844-84 19-316 27-400 14z"/><path d="m3898 3339c-169-19-305-85-429-209-142-142-208-304-209-511-1-413 346-740 760-716 186 10 333 78 472 217 72 73 93 102 131 181 25 52 53 130 63 173 23 109 15 262-19 369-105 327-429 536-769 496z"/></g></svg>